<svg width="60" height="60" viewBox="0 0 60 60" fill="none" xmlns="http://www.w3.org/2000/svg">
<path d="M18 6C14.6906 6 12 8.69063 12 12V48C12 51.3094 14.6906 54 18 54H42C45.3094 54 48 51.3094 48 48V12C48 8.69063 45.3094 6 42 6H18ZM28.5 39H31.5C33.1594 39 34.5 40.3406 34.5 42V49.5H25.5V42C25.5 40.3406 26.8406 39 28.5 39ZM21 16.5C21 15.675 21.675 15 22.5 15H25.5C26.325 15 27 15.675 27 16.5V19.5C27 20.325 26.325 21 25.5 21H22.5C21.675 21 21 20.325 21 19.5V16.5ZM34.5 15H37.5C38.325 15 39 15.675 39 16.5V19.5C39 20.325 38.325 21 37.5 21H34.5C33.675 21 33 20.325 33 19.5V16.5C33 15.675 33.675 15 34.5 15ZM21 28.5C21 27.675 21.675 27 22.5 27H25.5C26.325 27 27 27.675 27 28.5V31.5C27 32.325 26.325 33 25.5 33H22.5C21.675 33 21 32.325 21 31.5V28.5ZM34.5 27H37.5C38.325 27 39 27.675 39 28.5V31.5C39 32.325 38.325 33 37.5 33H34.5C33.675 33 33 32.325 33 31.5V28.5C33 27.675 33.675 27 34.5 27Z" fill="black"/>
</svg>
