<svg width="60" height="60" viewBox="0 0 60 60" fill="none" xmlns="http://www.w3.org/2000/svg">
<path d="M41.5219 13.5C38.9625 13.5 36.5531 14.7281 35.0531 16.8L31.8281 21.2625C31.4062 21.8438 30.7313 22.1906 30.0094 22.1906C29.2875 22.1906 28.6125 21.8438 28.1906 21.2625L24.9656 16.8C23.4656 14.7281 21.0563 13.5 18.4969 13.5C14.0906 13.5 10.5187 17.0719 10.5187 21.4781C10.5187 26.1563 13.5188 30.7031 16.9031 34.8187C20.7563 39.5062 25.4719 43.6313 28.7063 46.0969C29.0063 46.3219 29.4469 46.4906 30.0188 46.4906C30.5906 46.4906 31.0313 46.3219 31.3313 46.0969C34.5656 43.6313 39.2813 39.4969 43.1344 34.8187C46.5281 30.7031 49.5188 26.1563 49.5188 21.4781C49.5188 17.0719 45.9469 13.5 41.5406 13.5H41.5219ZM31.4062 14.1656C33.75 10.9219 37.5187 9 41.5219 9C48.4125 9 54 14.5875 54 21.4781C54 27.9094 49.9781 33.5625 46.5844 37.6781C42.45 42.7031 37.4625 47.0625 34.0406 49.6687C32.8875 50.55 31.4625 50.9906 30 50.9906C28.5375 50.9906 27.1125 50.55 25.9594 49.6687C22.5375 47.0625 17.55 42.7031 13.4156 37.6875C10.0219 33.5719 6 27.9094 6 21.4781C6 14.5875 11.5875 9 18.4781 9C22.4813 9 26.25 10.9219 28.5938 14.1656L30 16.1063L31.4062 14.1656Z" fill="black"/>
</svg>
