<svg width="60" height="60" viewBox="0 0 60 60" fill="none" xmlns="http://www.w3.org/2000/svg">
<path d="M24.75 10.5H35.25C35.6625 10.5 36 10.8375 36 11.25V15H24V11.25C24 10.8375 24.3375 10.5 24.75 10.5ZM19.5 11.25V15H12C8.69063 15 6 17.6906 6 21V45C6 48.3094 8.69063 51 12 51H48C51.3094 51 54 48.3094 54 45V21C54 17.6906 51.3094 15 48 15H40.5V11.25C40.5 8.35313 38.1469 6 35.25 6H24.75C21.8531 6 19.5 8.35313 19.5 11.25ZM27 26.25C27 25.425 27.675 24.75 28.5 24.75H31.5C32.325 24.75 33 25.425 33 26.25V30H36.75C37.575 30 38.25 30.675 38.25 31.5V34.5C38.25 35.325 37.575 36 36.75 36H33V39.75C33 40.575 32.325 41.25 31.5 41.25H28.5C27.675 41.25 27 40.575 27 39.75V36H23.25C22.425 36 21.75 35.325 21.75 34.5V31.5C21.75 30.675 22.425 30 23.25 30H27V26.25Z" fill="black"/>
</svg>
