<svg width="60" height="60" viewBox="0 0 60 60" fill="none" xmlns="http://www.w3.org/2000/svg">
<path d="M29.998 59.998C28.3862 59.998 26.7684 59.8688 25.193 59.6147C18.2356 58.4951 11.8592 54.9185 7.23978 49.5444C2.56993 44.1119 0 37.1704 0 29.999C0 13.4573 13.4568 0 30 0C46.5432 0 60 13.4573 60 29.999C60 37.2814 57.3574 44.3056 52.5605 49.7744C47.808 55.1928 41.2782 58.721 34.1777 59.7115C32.8039 59.9031 31.3999 60 30.002 60L29.998 59.998ZM29.998 2.41877C14.7902 2.41877 2.41864 14.7907 2.41864 29.997C2.41864 43.6136 12.1577 55.0637 25.5783 57.2242C28.2834 57.66 31.1196 57.6902 33.8408 57.3109C47.3722 55.4248 57.5773 43.6822 57.5773 29.997C57.5773 14.7907 45.2058 2.41877 29.998 2.41877Z" fill="white"/>
<path d="M34.0064 24.3241V30.5959H41.7646L40.5361 39.0442H34.0064V58.509C32.6973 58.6905 31.3578 58.7854 29.9982 58.7854C28.4288 58.7854 26.8877 58.6603 25.3869 58.4182V39.0442H18.2318V30.5959H25.3869V22.9221C25.3869 18.1614 29.2458 14.3003 34.0084 14.3003V14.3043C34.0226 14.3043 34.0347 14.3003 34.0488 14.3003H41.7666V21.6069H36.7236C35.2248 21.6069 34.0084 22.8233 34.0084 24.3221L34.0064 24.3241Z" fill="white"/>
</svg>
