<svg width="60" height="60" viewBox="0 0 60 60" fill="none" xmlns="http://www.w3.org/2000/svg">
<path d="M30.066 60H29.934C13.4286 60 0 46.5714 0 30.066V29.934C0 13.4285 13.4286 0 29.934 0H30.066C46.5714 0 60 13.4285 60 29.934V30.066C60 46.5714 46.5714 60 30.066 60ZM29.934 2.03094C14.5476 2.03094 2.03094 14.5476 2.03094 29.934V30.066C2.03094 45.4524 14.5476 57.9691 29.934 57.9691H30.066C45.4524 57.9691 57.9691 45.4524 57.9691 30.066V29.934C57.9691 14.5476 45.4524 2.03094 30.066 2.03094H29.934Z" fill="white"/>
<path d="M38.9698 12.8076H21.0326C16.0771 12.8076 12.0457 16.839 12.0457 21.7945V38.2045C12.0457 43.16 16.0771 47.1914 21.0326 47.1914H38.9698C43.9253 47.1914 47.9567 43.16 47.9567 38.2045V21.7945C47.9567 16.839 43.9253 12.8076 38.9698 12.8076ZM15.216 21.7945C15.216 18.5877 17.8257 15.9779 21.0326 15.9779H38.9698C42.1767 15.9779 44.7864 18.5877 44.7864 21.7945V38.2045C44.7864 41.4114 42.1767 44.0211 38.9698 44.0211H21.0326C17.8257 44.0211 15.216 41.4114 15.216 38.2045V21.7945Z" fill="white"/>
<path d="M30.0016 38.3579C34.6098 38.3579 38.3609 34.6088 38.3609 29.9985C38.3609 25.3883 34.6118 21.6392 30.0016 21.6392C25.3913 21.6392 21.6422 25.3883 21.6422 29.9985C21.6422 34.6088 25.3913 38.3579 30.0016 38.3579ZM30.0016 24.8115C32.8632 24.8115 35.1906 27.139 35.1906 30.0006C35.1906 32.8622 32.8632 35.1896 30.0016 35.1896C27.14 35.1896 24.8125 32.8622 24.8125 30.0006C24.8125 27.139 27.14 24.8115 30.0016 24.8115Z" fill="white"/>
<path d="M39.1344 22.9905C40.3753 22.9905 41.3867 21.9811 41.3867 20.7382C41.3867 19.4952 40.3773 18.4858 39.1344 18.4858C37.8914 18.4858 36.8821 19.4952 36.8821 20.7382C36.8821 21.9811 37.8914 22.9905 39.1344 22.9905Z" fill="white"/>
</svg>
