<svg width="60" height="60" viewBox="0 0 60 60" fill="none" xmlns="http://www.w3.org/2000/svg">
<path d="M30.066 60H29.934C13.4286 60 0 46.5715 0 30.066V29.934C0 13.4285 13.4286 0 29.934 0H30.066C46.5714 0 60 13.4285 60 29.934V30.066C60 46.5715 46.5714 60 30.066 60ZM29.934 2.03094C14.5476 2.03094 2.03094 14.5476 2.03094 29.934V30.066C2.03094 45.4524 14.5476 57.9691 29.934 57.9691H30.066C45.4524 57.9691 57.9691 45.4524 57.9691 30.066V29.934C57.9691 14.5476 45.4524 2.03094 30.066 2.03094H29.934Z" fill="white"/>
<path d="M39.0693 24.6947C39.0652 25.0826 39.0246 25.4706 38.988 25.8585C38.9758 25.9864 38.9718 26.1164 38.9698 26.2443C38.9657 26.4657 39.1424 26.6668 39.3638 26.6525C39.4694 26.6464 39.577 26.618 39.6786 26.5835C40.0177 26.4636 40.3528 26.3357 40.69 26.2078C40.9946 26.09 41.3053 25.9844 41.6201 25.8991C41.9634 25.8056 42.3066 25.7366 42.6559 25.7935C43.3667 25.9092 43.8298 26.6749 43.5698 27.3471C43.4967 27.536 43.385 27.6985 43.251 27.8487C43.0662 28.0539 42.857 28.2286 42.6295 28.3829C42.3614 28.5637 42.0913 28.7403 41.8212 28.919C41.3703 29.2156 40.9195 29.5101 40.4706 29.8107C40.2838 29.9345 40.103 30.0665 39.9263 30.2026C39.8289 30.2778 39.7375 30.3651 39.6542 30.4565C39.4958 30.6332 39.4084 30.8586 39.4227 31.0942C39.4369 31.344 39.4795 31.5877 39.5486 31.8274C39.7618 32.5748 40.0888 33.2693 40.4849 33.9334C41.547 35.7064 43.052 37.0916 44.8432 38.2228C45.3347 38.5335 45.8607 38.7854 46.3786 39.0514C46.4517 39.09 46.5228 39.1286 46.5939 39.1712C46.665 39.2139 46.728 39.2708 46.7747 39.3398C46.8478 39.4434 46.8579 39.5531 46.795 39.6668C46.7422 39.7643 46.665 39.8394 46.5817 39.9085C46.4883 39.9857 46.3867 40.0506 46.2811 40.1095C45.6759 40.4528 45.026 40.7087 44.3538 40.8874C44.0288 40.9747 43.7039 41.0661 43.381 41.1615C43.1819 41.2204 42.9951 41.3078 42.8103 41.4032C42.4995 41.5637 42.3229 41.8216 42.2579 42.1567C42.2213 42.3436 42.1989 42.5345 42.1644 42.7213C42.0791 43.1945 41.9085 43.3671 41.4455 43.4484C41.283 43.4768 41.1165 43.4931 40.952 43.5032C40.5376 43.5256 40.1233 43.5378 39.709 43.5601C39.6968 43.5601 39.6846 43.5601 39.6745 43.5621C38.0193 43.6596 36.4189 44.1897 34.9993 45.0468C34.9241 45.0914 34.849 45.1381 34.7718 45.1828C34.1971 45.5301 33.6122 45.8612 32.9846 46.1049C32.2839 46.377 31.5609 46.5395 30.8115 46.6065C30.1799 46.6634 29.5503 46.6552 28.9227 46.5841C27.9824 46.4785 27.0908 46.2044 26.248 45.7738C25.856 45.5727 25.4782 45.3493 25.1045 45.1198C25.0842 45.1077 25.0639 45.0955 25.0416 45.0813C23.5509 44.1734 21.855 43.6231 20.1105 43.552C20.0983 43.552 20.0861 43.552 20.0739 43.552C19.7084 43.5378 19.3448 43.5235 18.9793 43.5012C18.766 43.489 18.5528 43.4606 18.3436 43.4037C18.0775 43.3306 17.8846 43.097 17.8338 42.8269C17.8054 42.6786 17.783 42.5304 17.7566 42.3821C17.7505 42.3496 17.7505 42.3151 17.7444 42.2826C17.6835 41.848 17.4682 41.5292 17.06 41.3444C16.8102 41.2306 16.5543 41.1392 16.2903 41.0661C15.8354 40.9402 15.3764 40.8285 14.9316 40.668C14.5396 40.5279 14.1619 40.3614 13.7983 40.1623C13.6887 40.1034 13.583 40.0364 13.4815 39.9674C13.4124 39.9207 13.3475 39.8679 13.2906 39.809C13.1078 39.6181 13.1261 39.3683 13.3332 39.2058C13.4531 39.1103 13.5932 39.0473 13.7293 38.9803C14.6777 38.5152 15.5774 37.971 16.4142 37.3251C17.6774 36.3523 18.7477 35.2008 19.5581 33.8136C19.8465 33.3181 20.0861 32.7921 20.2831 32.2519C20.4131 31.8944 20.5187 31.5369 20.5451 31.1612C20.5634 30.885 20.4699 30.6108 20.2811 30.4098C20.145 30.2656 19.9866 30.1498 19.8261 30.034C19.5865 29.8634 19.3448 29.6949 19.1011 29.5344C18.5771 29.1892 18.0511 28.85 17.5271 28.5068C17.2976 28.3565 17.0762 28.194 16.8772 28.0051C16.733 27.867 16.603 27.7188 16.4995 27.5461C16.2842 27.1846 16.2679 26.813 16.4284 26.4311C16.5238 26.2037 16.7026 26.0108 16.926 25.9072C17.2448 25.761 17.5779 25.7427 17.913 25.7975C18.2745 25.8564 18.6218 25.9681 18.965 26.092C19.3164 26.2179 19.6616 26.356 20.011 26.486C20.1734 26.5469 20.3379 26.6078 20.5106 26.6342C20.5512 26.6403 20.5918 26.6525 20.6324 26.6505C20.8335 26.6444 21 26.5794 20.998 26.3093C20.998 26.1793 20.9939 26.0473 20.9879 25.9173C20.9574 25.2674 20.9188 24.6175 20.9025 23.9676C20.866 22.4201 20.8721 20.8664 21.2762 19.3635C21.524 18.4435 21.9525 17.5884 22.5314 16.8289C23.7316 15.2508 25.3158 14.2496 27.2106 13.7155C28.2464 13.423 29.3045 13.3276 30.3769 13.3601C31.3903 13.3905 32.3997 13.5611 33.3583 13.8962C34.4956 14.2943 35.5294 14.8711 36.4087 15.6895C37.408 16.6197 38.1777 17.7062 38.5961 19.0223C38.785 19.6174 38.9048 20.2266 38.9779 20.844C39.1302 22.1215 39.0876 23.4071 39.0754 24.6907L39.0693 24.6947Z" fill="white"/>
</svg>
